<?xml version="1.0" encoding="utf-8"?>
<svg xmlns="http://www.w3.org/2000/svg" xmlns:xlink="http://www.w3.org/1999/xlink" style="margin: auto; background: none; display: block; shape-rendering: auto;" width="200px" height="200px" viewBox="0 0 100 100" preserveAspectRatio="xMidYMid">
<g transform="rotate(0 50 50)">
  <rect x="47" y="28.5" rx="0.9" ry="0.9" width="6" height="3" fill="#f59300">
    <animate attributeName="opacity" values="1;0" keyTimes="0;1" dur="1.4492753623188404s" begin="-1.2422360248447204s" repeatCount="indefinite"></animate>
  </rect>
</g><g transform="rotate(51.42857142857143 50 50)">
  <rect x="47" y="28.5" rx="0.9" ry="0.9" width="6" height="3" fill="#f59300">
    <animate attributeName="opacity" values="1;0" keyTimes="0;1" dur="1.4492753623188404s" begin="-1.0351966873706004s" repeatCount="indefinite"></animate>
  </rect>
</g><g transform="rotate(102.85714285714286 50 50)">
  <rect x="47" y="28.5" rx="0.9" ry="0.9" width="6" height="3" fill="#f59300">
    <animate attributeName="opacity" values="1;0" keyTimes="0;1" dur="1.4492753623188404s" begin="-0.8281573498964803s" repeatCount="indefinite"></animate>
  </rect>
</g><g transform="rotate(154.28571428571428 50 50)">
  <rect x="47" y="28.5" rx="0.9" ry="0.9" width="6" height="3" fill="#f59300">
    <animate attributeName="opacity" values="1;0" keyTimes="0;1" dur="1.4492753623188404s" begin="-0.6211180124223602s" repeatCount="indefinite"></animate>
  </rect>
</g><g transform="rotate(205.71428571428572 50 50)">
  <rect x="47" y="28.5" rx="0.9" ry="0.9" width="6" height="3" fill="#f59300">
    <animate attributeName="opacity" values="1;0" keyTimes="0;1" dur="1.4492753623188404s" begin="-0.41407867494824013s" repeatCount="indefinite"></animate>
  </rect>
</g><g transform="rotate(257.14285714285717 50 50)">
  <rect x="47" y="28.5" rx="0.9" ry="0.9" width="6" height="3" fill="#f59300">
    <animate attributeName="opacity" values="1;0" keyTimes="0;1" dur="1.4492753623188404s" begin="-0.20703933747412007s" repeatCount="indefinite"></animate>
  </rect>
</g><g transform="rotate(308.57142857142856 50 50)">
  <rect x="47" y="28.5" rx="0.9" ry="0.9" width="6" height="3" fill="#f59300">
    <animate attributeName="opacity" values="1;0" keyTimes="0;1" dur="1.4492753623188404s" begin="0s" repeatCount="indefinite"></animate>
  </rect>
</g>
<!-- [ldio] generated by https://loading.io/ --></svg>